<mxfile host="app.diagrams.net" modified="2023-09-14T21:50:11.775Z" agent="Mozilla/5.0 (X11; Ubuntu; Linux x86_64; rv:107.0) Gecko/20100101 Firefox/107.0" version="21.7.5" etag="yAvuoVnzMFQkyazwWezb" type="github">
  <diagram name="PÃ¡gina-1" id="Y6mNuknveuXk8u5VaXuY">
    <mxGraphModel>
      <root>
        <mxCell id="0" />
        <mxCell id="1" parent="0" />
      </root>
    </mxGraphModel>
  </diagram>
</mxfile>
